<svg width="60" height="52" viewBox="0 0 60 52" fill="none" xmlns="http://www.w3.org/2000/svg">
<g clip-path="url(#clip0_0_74)">
<path d="M37.4801 32.0427L18.7795 20.6252C18.351 20.3635 18.1947 19.7632 18.4322 19.2912L20.1599 15.8582C20.3974 15.3862 20.9424 15.2141 21.371 15.4757L40.0716 26.8933C40.5002 27.1549 40.6565 27.7552 40.4189 28.2272L38.6912 31.6602C38.4537 32.1322 37.9087 32.3044 37.4801 32.0427Z" fill="#FAFAFA"/>
<path d="M36.0247 39.5847L45.9027 20.0293C46.4665 18.9132 47.8911 18.5903 49.0685 19.3119C50.246 20.0334 50.748 21.5369 50.1842 22.653L40.3062 42.2084C39.7424 43.3245 38.3178 43.6474 37.1404 42.9259C35.9629 42.2044 35.4609 40.7008 36.0247 39.5847Z" fill="#FAFAFA"/>
<path d="M9.02466 24.5847L18.9027 5.02933C19.4665 3.9132 20.8911 3.59033 22.0685 4.31185C23.246 5.03337 23.748 6.5369 23.1842 7.65303L13.3062 27.2084C12.7424 28.3245 11.3178 28.6474 10.1404 27.9259C8.96295 27.2044 8.46087 25.7008 9.02466 24.5847Z" fill="#FAFAFA"/>
<path d="M50.8581 27.1893L49.6893 26.4757C49.2608 26.2141 48.7158 26.3862 48.4782 26.8582L42.4315 38.8736C42.1939 39.3457 42.3502 39.9459 42.7787 40.2076L43.9475 40.9212C45.0189 41.5753 46.3814 41.145 46.9753 39.9649L51.7263 30.5243C52.3202 29.3442 51.9295 27.8435 50.8581 27.1893Z" fill="#FAFAFA"/>
<path d="M15.8783 8.64527L14.7652 8.02829C13.7449 7.46273 12.4447 7.83977 11.8757 8.86616L7.32424 17.0773C6.75531 18.1036 7.12461 19.4061 8.14491 19.9717L9.25796 20.5887C9.66608 20.8149 10.1862 20.6641 10.4138 20.2535L16.2066 9.80305C16.4341 9.3925 16.2864 8.8715 15.8783 8.64527Z" fill="#FAFAFA"/>
</g>
<defs>
<clipPath id="clip0_0_74">
<rect width="49.8905" height="30.2709" fill="white" transform="translate(15.5684 0.558647) rotate(29)"/>
</clipPath>
</defs>
</svg>
