<svg width="120" height="20" viewBox="0 0 120 20" fill="none" xmlns="http://www.w3.org/2000/svg">
<path d="M9.95663 15.2038L16.1098 18.9176L14.4769 11.9181L19.9133 7.2086L12.7544 6.60125L9.95663 0L7.15882 6.60125L0 7.2086L5.43632 11.9181L3.80343 18.9176L9.95663 15.2038Z" fill="#FD0054"/>
<path d="M34.9566 15.2038L41.1098 18.9176L39.4769 11.9181L44.9133 7.2086L37.7544 6.60125L34.9566 0L32.1588 6.60125L25 7.2086L30.4363 11.9181L28.8034 18.9176L34.9566 15.2038Z" fill="#FD0054"/>
<path d="M59.9566 15.2038L66.1098 18.9176L64.4769 11.9181L69.9133 7.2086L62.7544 6.60125L59.9566 0L57.1588 6.60125L50 7.2086L55.4363 11.9181L53.8034 18.9176L59.9566 15.2038Z" fill="#FD0054"/>
<path d="M59.9566 15.2038L66.1098 18.9176L64.4769 11.9181L69.9133 7.2086L62.7544 6.60125L59.9566 0L57.1588 6.60125L50 7.2086L55.4363 11.9181L53.8034 18.9176L59.9566 15.2038Z" fill="#FD0054"/>
<path opacity="0.2" d="M84.857 15.2038L91.0102 18.9176L89.3773 11.9181L94.8137 7.2086L87.6548 6.60125L84.857 0L82.0592 6.60125L74.9004 7.2086L80.3367 11.9181L78.7038 18.9176L84.857 15.2038Z" fill="#FAFAFA"/>
<path d="M59.9566 15.2038L66.1098 18.9176L64.4769 11.9181L69.9133 7.2086L62.7544 6.60125L59.9566 0L57.1588 6.60125L50 7.2086L55.4363 11.9181L53.8034 18.9176L59.9566 15.2038Z" fill="#FD0054"/>
<path d="M84.857 15.9538L91.0102 19.6676L89.3773 12.6681L94.8137 7.9586L87.6548 7.35125L84.857 0.75L82.0592 7.35125L74.9004 7.9586L80.3367 12.6681L78.7038 19.6676L84.857 15.9538Z" fill="#FD0054"/>
<path d="M109.857 15.9538L116.01 19.6676L114.377 12.6681L119.814 7.9586L112.655 7.35125L109.857 0.75L107.059 7.35125L99.9004 7.9586L105.337 12.6681L103.704 19.6676L109.857 15.9538Z" fill="#FD0054"/>
<path opacity="0.2" d="M109.857 15.2038L116.01 18.9176L114.377 11.9181L119.814 7.2086L112.655 6.60125L109.857 0L107.059 6.60125L99.9004 7.2086L105.337 11.9181L103.704 18.9176L109.857 15.2038Z" fill="#FAFAFA"/>
</svg>
